<?xml version="1.0" standalone="no"?>
<!DOCTYPE svg PUBLIC "-//W3C//DTD SVG 20010904//EN"
 "http://www.w3.org/TR/2001/REC-SVG-20010904/DTD/svg10.dtd">
<svg version="1.0" xmlns="http://www.w3.org/2000/svg"
 width="700.000000pt" height="700.000000pt" viewBox="0 0 700.000000 700.000000"
 preserveAspectRatio="xMidYMid meet">
<metadata>
Created by potrace 1.11, written by Peter Selinger 2001-2013
</metadata>
<g transform="translate(0.000000,700.000000) scale(0.100000,-0.100000)"
fill="#000000" stroke="none">
<path d="M483 5282 c-20 -2 -33 -9 -33 -17 0 -8 37 -54 83 -102 45 -49 87
-105 94 -124 7 -18 62 -218 123 -444 183 -674 189 -695 195 -705 3 -5 -31
-134 -76 -287 -44 -153 -83 -285 -85 -293 -15 -64 -134 -461 -148 -493 -7 -19
-50 -72 -94 -119 -91 -97 -108 -123 -90 -135 19 -12 560 -13 576 0 17 14 -1
40 -86 123 -65 64 -67 67 -66 112 2 39 148 599 172 655 6 15 51 -133 106 -348
12 -45 22 -84 47 -174 44 -158 43 -162 -46 -256 -118 -126 -129 -120 238 -121
173 -1 310 3 313 8 8 13 -15 45 -96 133 -82 87 -102 127 -141 275 -15 58 -60
224 -99 370 -89 328 -130 480 -134 501 -2 8 -11 39 -19 67 l-16 51 167 558
167 558 82 86 c46 47 83 93 83 103 0 18 20 17 -352 18 -119 0 -221 -3 -227 -6
-18 -11 -2 -32 66 -87 86 -69 113 -99 113 -123 0 -28 -202 -697 -209 -691 -5
6 -68 237 -147 541 -24 89 -35 150 -31 166 4 16 37 52 81 90 78 66 93 85 78
100 -9 9 -516 17 -589 10z"/>
<path d="M1778 5272 c-6 -7 -8 -16 -4 -20 3 -4 38 -39 77 -78 55 -56 73 -81
78 -110 4 -22 7 -548 6 -1169 0 -1070 -1 -1132 -18 -1158 -10 -15 -47 -56 -82
-91 -68 -66 -76 -82 -47 -89 14 -4 562 -2 585 2 20 3 0 32 -68 101 -68 68 -76
81 -83 126 -4 27 -7 551 -6 1164 1 906 3 1120 14 1140 7 14 47 58 87 99 48 47
71 77 65 83 -16 16 -591 16 -604 0z"/>
<path d="M2495 5282 c-54 -5 -57 -9 -41 -39 8 -16 43 -55 76 -88 34 -33 69
-73 77 -89 13 -25 51 -243 68 -390 3 -27 8 -52 9 -55 2 -3 7 -37 11 -76 3 -38
8 -72 10 -75 1 -3 6 -32 9 -65 4 -33 9 -67 11 -75 2 -8 6 -37 10 -65 3 -27 8
-61 10 -75 3 -14 7 -41 9 -60 3 -19 23 -163 46 -320 23 -157 43 -301 46 -320
2 -19 6 -46 9 -60 3 -14 7 -45 10 -70 3 -25 7 -56 10 -69 2 -14 9 -61 15 -105
6 -45 13 -92 15 -106 3 -23 20 -139 31 -215 30 -210 43 -287 53 -299 9 -10 32
-14 87 -12 78 2 93 10 95 51 0 11 2 27 4 36 1 8 6 42 9 75 4 32 9 70 11 84 2
14 6 52 10 85 3 33 8 74 10 90 3 17 7 50 10 75 2 25 11 104 20 175 8 72 18
153 21 180 3 28 7 61 9 75 2 14 6 50 10 80 3 30 10 89 15 130 5 41 11 95 14
120 3 25 12 101 21 170 9 69 18 145 21 170 2 25 7 68 11 95 6 55 8 71 17 160
4 33 9 71 11 85 2 14 7 50 10 80 3 30 8 71 10 90 3 19 14 110 25 202 11 91 24
178 29 191 6 14 46 64 90 111 45 47 81 92 81 101 0 17 2 17 -205 16 -341 0
-335 0 -335 -19 0 -10 27 -44 61 -77 81 -80 93 -104 84 -174 -3 -31 -8 -73
-11 -93 -2 -21 -6 -57 -9 -80 -3 -24 -7 -65 -10 -93 -3 -27 -10 -81 -15 -120
-5 -38 -12 -95 -15 -125 -4 -30 -8 -66 -10 -80 -2 -14 -6 -50 -10 -80 -5 -49
-16 -143 -30 -255 -3 -22 -8 -66 -11 -97 -3 -31 -7 -65 -9 -75 -2 -10 -6 -46
-10 -81 -7 -56 -16 -73 -21 -39 -1 7 -7 50 -13 97 -6 47 -13 96 -15 110 -2 14
-7 46 -10 71 -4 25 -9 57 -11 70 -2 13 -27 184 -55 379 -28 195 -53 365 -55
376 -3 18 -15 108 -20 149 -4 29 31 83 90 139 74 70 82 96 33 97 -129 2 -509
3 -533 1z"/>
<path d="M4226 4703 c-10 -27 -23 -64 -31 -83 -7 -19 -36 -100 -65 -180 -28
-80 -58 -161 -65 -180 -8 -19 -32 -87 -55 -150 -57 -157 -436 -1200 -454
-1247 -8 -21 -38 -103 -66 -183 -29 -80 -74 -203 -100 -275 -27 -71 -76 -206
-110 -300 -34 -93 -77 -212 -96 -264 -19 -52 -31 -97 -27 -101 19 -15 115 -42
123 -34 7 8 30 67 81 209 10 28 34 95 54 150 20 55 56 154 80 220 24 66 61
170 83 230 71 194 107 291 270 740 88 242 167 458 176 480 8 22 45 123 82 225
36 102 80 221 96 265 16 44 38 105 49 135 10 30 43 120 72 200 l53 145 -59 23
c-33 12 -63 22 -67 22 -4 0 -15 -21 -24 -47z"/>
<path d="M4650 3996 c-153 -33 -251 -150 -331 -401 -43 -133 -62 -368 -45
-550 3 -33 8 -94 12 -135 3 -41 9 -106 14 -145 8 -82 5 -354 -5 -405 -14 -70
-56 -176 -84 -210 -66 -82 -152 -60 -182 48 -14 51 -17 210 -6 312 4 36 10 89
13 118 5 43 3 51 -9 46 -8 -3 -22 -24 -30 -47 -8 -23 -65 -179 -125 -346 -61
-168 -109 -308 -106 -313 3 -5 39 10 81 33 l75 41 26 -21 c84 -68 166 -76 266
-27 133 65 240 223 305 451 42 145 46 295 15 550 -2 22 -6 67 -8 100 -3 33 -8
94 -12 135 -15 142 -9 349 11 430 33 137 66 192 123 207 55 14 100 -44 120
-157 11 -60 9 -310 -3 -377 -6 -35 -5 -43 8 -43 10 0 30 41 62 128 161 439
207 574 199 582 -6 6 -34 -6 -74 -30 -36 -22 -72 -40 -81 -40 -9 0 -33 13 -54
30 -31 25 -95 52 -115 49 -3 0 -30 -6 -60 -13z"/>
<path d="M5412 3999 c-108 -20 -204 -106 -272 -244 -35 -71 -81 -210 -95 -284
-28 -150 -22 -422 14 -711 4 -30 6 -125 5 -210 -1 -121 -6 -172 -22 -232 -40
-147 -92 -218 -159 -218 -72 0 -108 82 -108 250 0 96 4 152 21 283 7 58 -9 63
-31 10 -46 -109 -247 -674 -242 -679 3 -4 38 12 78 35 l71 41 32 -19 c76 -48
92 -55 151 -55 160 -2 313 153 398 404 29 84 47 150 54 195 6 43 6 249 -1 304
-8 64 -15 133 -22 221 -3 41 -8 93 -10 115 -14 125 -12 354 2 424 32 155 83
241 143 241 75 0 115 -109 116 -315 0 -71 -4 -160 -8 -197 -6 -55 -5 -68 6
-68 10 0 51 101 121 298 59 163 111 306 116 317 20 47 30 89 22 97 -4 4 -38
-10 -75 -32 -36 -22 -73 -40 -81 -40 -8 0 -27 11 -43 24 -57 47 -104 59 -181
45z"/>
<path d="M6178 4000 c-67 -12 -142 -56 -196 -115 -86 -95 -173 -322 -189 -495
-12 -122 -5 -422 11 -506 7 -36 18 -210 20 -315 5 -250 -76 -469 -173 -469
-84 0 -114 62 -117 240 -1 69 2 150 6 180 16 105 19 150 11 155 -15 9 -26 -15
-90 -195 -108 -300 -138 -383 -162 -447 -13 -35 -20 -65 -17 -69 4 -3 33 9 65
27 90 53 92 53 133 20 106 -85 235 -59 365 73 80 81 131 175 186 341 32 97 33
106 33 270 1 94 -3 206 -7 250 -5 44 -10 109 -13 145 -3 36 -7 76 -10 90 -3
14 -7 111 -9 216 -4 176 -3 198 19 275 28 103 57 161 90 182 101 67 169 -79
160 -345 -3 -89 -13 -188 -20 -200 -2 -4 0 -10 6 -13 11 -7 44 14 36 23 -3 2
0 14 6 25 5 11 27 68 48 126 21 58 72 200 114 315 43 115 73 213 69 217 -5 5
-39 -9 -77 -31 -38 -22 -73 -40 -79 -40 -6 0 -33 15 -61 34 -59 40 -92 47
-158 36z"/>
</g>
</svg>
