<?xml version="1.0" encoding="utf-8"?>
<!-- Generator: Adobe Illustrator 15.1.0, SVG Export Plug-In . SVG Version: 6.00 Build 0)  -->
<!DOCTYPE svg PUBLIC "-//W3C//DTD SVG 1.1//EN" "http://www.w3.org/Graphics/SVG/1.1/DTD/svg11.dtd">
<svg version="1.1" id="Ebene_1" xmlns="http://www.w3.org/2000/svg" xmlns:xlink="http://www.w3.org/1999/xlink" x="0px" y="0px"
	height="65px"  viewBox="0 40 200 120">
<g>
	<g>
		<path d="M18.132,56.575c-0.208-0.832-0.728-1.768-1.246-2.393l-3.43-3.531c-0.312-0.416-0.623-0.728-0.623-1.145
			c0-0.311,0.312-0.414,0.832-0.414h16.419c0.416,0,0.727,0.104,0.727,0.414c0,0.417-0.208,0.729-0.519,1.04l-3.222,2.806
			c-0.832,0.728-1.352,1.56-1.145,2.391l5.196,19.433h0.207l5.821-19.433c0.207-0.831-0.313-1.663-1.248-2.391l-3.429-2.806
			c-0.416-0.312-0.623-0.623-0.623-1.04c0-0.311,0.519-0.414,0.935-0.414h15.068c0.417,0,0.832,0.104,0.832,0.414
			c0,0.417-0.312,0.831-0.623,1.145l-3.533,3.531c-0.52,0.521-0.935,1.561-1.143,2.393l-9.041,30.239l8.521,31.594
			c0.312,1.142,0.936,2.182,1.456,2.805l3.532,3.845c0.52,0.52,1.04,1.145,1.04,1.559c0,0.313-0.416,0.417-0.832,0.417H31.434
			c-0.415,0-0.727-0.208-0.727-0.52c0-0.416,0.416-0.937,0.936-1.456l3.222-3.428c0.414-0.521,0.519-1.352,0.312-2.08l-4.988-18.602
			h-0.208l-4.988,18.291c-0.312,1.039-0.207,1.869,0.312,2.391l3.431,3.428c0.519,0.52,0.934,1.04,0.934,1.456
			c0,0.312-0.312,0.52-0.729,0.52H13.456c-0.519,0-0.832-0.104-0.832-0.417c0-0.414,0.417-1.039,0.936-1.662l3.431-3.533
			c0.623-0.727,1.35-1.871,1.662-3.013l8.418-28.994L18.132,56.575z"/>
		<path d="M55.332,56.575c0-1.248-0.208-2.184-0.935-2.911l-3.118-3.013c-0.207-0.313-0.727-0.623-0.727-0.937
			c0-0.312,0.207-0.622,0.623-0.622h16.316c0.415,0,0.623,0.311,0.623,0.622c0,0.313-0.52,0.623-0.728,0.937l-3.117,3.013
			c-0.728,0.728-0.936,1.663-0.936,2.911v62.975c0,1.248,0.208,2.183,0.936,2.91l3.117,3.015c0.208,0.31,0.728,0.623,0.728,0.935
			s-0.208,0.624-0.623,0.624H51.176c-0.416,0-0.623-0.313-0.623-0.624s0.52-0.625,0.727-0.935l3.118-3.015
			c0.727-0.728,0.935-1.662,0.935-2.91V56.575z"/>
		<path d="M75.075,56.886c-0.207-1.143-0.519-1.974-1.246-2.703l-3.43-3.428c-0.415-0.417-0.623-0.831-0.623-1.248
			c0-0.311,0.312-0.414,0.936-0.414h16.106c0.313,0,0.625,0.104,0.625,0.414c0,0.417-0.208,0.831-0.521,1.145l-2.702,2.494
			c-0.832,0.728-1.352,1.869-1.247,2.805l5.299,36.477h0.208l4.365-36.477c0.103-0.936-0.416-1.975-1.247-2.805l-2.495-2.494
			c-0.31-0.313-0.623-0.728-0.623-1.145c0-0.311,0.416-0.414,0.727-0.414h13.925c0.625,0,0.936,0.104,0.936,0.414
			c0,0.417-0.207,0.831-0.623,1.248l-3.43,3.428c-0.728,0.729-1.142,1.561-1.246,2.703l-8.21,69.003
			c-0.104,0.728-0.416,1.145-1.039,1.145h-3.638c-0.52,0-0.729-0.313-0.832-0.831L75.075,56.886z"/>
	</g>
	<g>
		<path fill="#494949" d="M136.906,105.727c-0.084,0.232-0.297,0.389-0.61,0.389c-0.234,0-0.303-0.232-0.268-0.546
			c1.049-6.313,0.882-16.13-2.703-16.13c-1.948,0-2.701,1.636-3.438,3.661c-1.388,3.818-1.766,7.638-0.45,19.873
			c1.257,11.534,0.944,14.104-1.297,20.261c-3.006,8.263-8.2,10.756-11.083,10.756c-2.106,0-3.118-0.857-3.828-1.483
			c-0.657-0.545-1.042-0.777-1.274-0.777c-0.313,0-1.133,0.545-3.118,1.714c-0.397,0.235-0.823,0.547-1.133,0.547
			c-0.313,0-0.335-0.158-0.251-0.393l7.148-19.636c0.084-0.233,0.276-0.545,0.589-0.545c0.234,0,0.276,0.312,0.268,0.545
			c-0.865,6.232-2.052,16.131,2.548,16.131c1.48,0,2.855-1.637,3.735-4.052c1.9-5.224,1.632-10.912,0.593-20.262
			c-0.974-8.885-0.379-14.806,1.693-20.495c2.695-7.402,6.74-9.742,10.714-9.742c1.479,0,2.883,0.857,3.712,1.793
			c0.304,0.235,0.688,0.468,0.998,0.468c0.313,0,1.292-0.545,2.248-1.247c0.929-0.625,1.538-1.014,2.005-1.014
			c0.389,0,0.405,0.389,0.234,0.857L136.906,105.727z"/>
		<path fill="#494949" d="M158.572,105.727c-0.084,0.232-0.297,0.389-0.61,0.389c-0.234,0-0.303-0.232-0.268-0.546
			c1.048-6.313,0.882-16.13-2.704-16.13c-1.948,0-2.7,1.636-3.438,3.661c-1.388,3.818-1.766,7.638-0.45,19.873
			c1.257,11.534,0.944,14.104-1.296,20.261c-3.006,8.263-8.2,10.756-11.083,10.756c-2.105,0-3.118-0.857-3.828-1.483
			c-0.659-0.545-1.042-0.777-1.274-0.777c-0.313,0-1.136,0.545-3.118,1.714c-0.397,0.235-0.823,0.547-1.133,0.547
			c-0.313,0-0.335-0.158-0.25-0.393l7.148-19.636c0.087-0.233,0.276-0.545,0.589-0.545c0.234,0,0.276,0.312,0.268,0.545
			c-0.866,6.232-2.052,16.131,2.548,16.131c1.48,0,2.855-1.637,3.735-4.052c1.9-5.224,1.632-10.912,0.594-20.262
			c-0.974-8.885-0.379-14.806,1.692-20.495c2.695-7.402,6.74-9.742,10.714-9.742c1.48,0,2.884,0.857,3.712,1.793
			c0.304,0.235,0.688,0.468,0.998,0.468c0.313,0,1.292-0.545,2.248-1.247c0.929-0.625,1.538-1.014,2.006-1.014
			c0.389,0,0.404,0.389,0.234,0.857L158.572,105.727z"/>
		<path fill="#494949" d="M180.238,105.727c-0.084,0.232-0.299,0.389-0.612,0.389c-0.234,0-0.301-0.232-0.268-0.546
			c1.049-6.313,0.885-16.13-2.7-16.13c-1.951,0-2.704,1.636-3.439,3.661c-1.39,3.818-1.768,7.638-0.451,19.873
			c1.257,11.534,0.947,14.104-1.294,20.261c-3.007,8.263-8.203,10.756-11.086,10.756c-2.104,0-3.117-0.857-3.825-1.483
			c-0.66-0.545-1.043-0.777-1.277-0.777c-0.31,0-1.133,0.545-3.117,1.714c-0.396,0.235-0.82,0.547-1.133,0.547
			c-0.312,0-0.335-0.158-0.248-0.393l7.148-19.636c0.084-0.233,0.276-0.545,0.586-0.545c0.235,0,0.277,0.312,0.269,0.545
			c-0.864,6.232-2.054,16.131,2.547,16.131c1.48,0,2.857-1.637,3.735-4.052c1.903-5.224,1.633-10.912,0.595-20.262
			c-0.975-8.885-0.38-14.806,1.691-20.495c2.695-7.402,6.74-9.742,10.714-9.742c1.482,0,2.883,0.857,3.712,1.793
			c0.305,0.235,0.691,0.468,1.001,0.468s1.291-0.545,2.247-1.247c0.927-0.625,1.536-1.014,2.004-1.014
			c0.389,0,0.406,0.389,0.234,0.857L180.238,105.727z"/>
	</g>
	<line fill="none" stroke="#494949" stroke-width="4" stroke-miterlimit="10" x1="91.835" y1="150.907" x2="123.156" y2="64.854"/>
</g>
</svg>
